<?xml version="1.0" standalone="no"?>
<!DOCTYPE svg PUBLIC "-//W3C//DTD SVG 20010904//EN"
 "http://www.w3.org/TR/2001/REC-SVG-20010904/DTD/svg10.dtd">
<svg version="1.0" xmlns="http://www.w3.org/2000/svg"
 width="800.000000pt" height="800.000000pt" viewBox="0 0 800.000000 800.000000"
 preserveAspectRatio="xMidYMid meet">
<metadata>
Created by potrace 1.16, written by Peter Selinger 2001-2019
</metadata>
<g transform="translate(0.000000,800.000000) scale(0.100000,-0.100000)"
fill="#000000" stroke="none">
<path d="M0 4000 l0 -4000 4000 0 4000 0 0 4000 0 4000 -4000 0 -4000 0 0
-4000z m3860 1146 l0 -1065 -92 -54 c-51 -29 -232 -134 -403 -232 -170 -98
-398 -229 -505 -292 l-195 -113 -5 902 -5 902 -46 -54 c-124 -147 -245 -365
-310 -560 -140 -418 -128 -845 34 -1248 l43 -108 -177 -102 c-97 -56 -179
-102 -182 -102 -10 0 -83 175 -122 295 -75 228 -107 429 -108 680 0 187 12
312 48 482 136 632 568 1196 1144 1492 l101 52 0 -952 c0 -757 3 -950 13 -946
6 2 86 48 177 100 l165 95 3 911 c2 878 3 911 21 920 31 17 270 57 354 60 l47
1 0 -1064z m490 1044 c152 -25 245 -49 381 -96 453 -157 852 -469 1118 -873
68 -104 191 -331 191 -353 0 -5 -19 2 -42 16 -24 13 -216 124 -427 246 -211
122 -407 240 -435 264 -127 107 -292 204 -466 275 -54 23 -104 41 -109 41 -17
0 -15 -1361 2 -1383 6 -9 39 -31 72 -50 53 -30 195 -112 650 -375 320 -186
470 -270 473 -267 9 9 32 190 38 299 l7 124 -28 18 c-16 11 -220 130 -454 265
l-426 246 -3 242 -2 243 42 -24 c24 -13 261 -150 528 -304 267 -154 540 -312
607 -350 112 -63 123 -72 130 -104 4 -19 8 -152 8 -295 -1 -276 -7 -335 -60
-545 -50 -196 -147 -435 -172 -425 -8 3 -83 45 -167 93 -83 49 -349 203 -591
342 -242 139 -582 335 -755 435 l-315 182 -3 1067 -2 1066 42 0 c24 0 99 -9
168 -20z m62 -2583 c398 -231 725 -419 1173 -677 127 -73 236 -138 244 -145
12 -12 5 -26 -45 -96 -73 -102 -281 -319 -388 -405 -403 -326 -879 -494 -1396
-494 -324 0 -647 70 -932 203 l-91 42 228 131 229 131 59 -19 c168 -52 251
-62 502 -63 132 0 253 4 269 8 34 9 80 -20 -444 282 -151 87 -360 208 -463
268 l-189 109 -186 -108 c-103 -59 -272 -157 -376 -216 l-189 -109 -51 57
c-58 66 -140 166 -185 229 l-30 42 877 507 c482 278 895 517 917 531 22 13 45
25 52 25 6 0 193 -105 415 -233z"/>
<path d="M3793 3243 c-112 -65 -199 -120 -195 -124 4 -4 79 -49 167 -100 88
-50 217 -125 288 -165 70 -41 187 -108 260 -151 72 -42 217 -125 320 -185 126
-73 195 -107 207 -103 63 20 368 241 353 256 -5 4 -82 50 -173 102 -91 52
-280 161 -420 242 -517 298 -598 345 -602 345 -2 0 -94 -53 -205 -117z"/>
</g>
</svg>
